<svg width="76" height="29" viewBox="0 0 76 29" fill="none" xmlns="http://www.w3.org/2000/svg">
<path d="M74.7734 15.3994C75.3257 15.3994 75.7734 14.9517 75.7734 14.3994C75.7734 13.8471 75.3257 13.3994 74.7734 13.3994V15.3994ZM1.62754 14.3994L0.972084 13.6442C0.753235 13.8341 0.627541 14.1096 0.627541 14.3994C0.627541 14.6892 0.753235 14.9647 0.972084 15.1546L1.62754 14.3994ZM15.9508 28.1546C16.3679 28.5166 16.9995 28.472 17.3615 28.0549C17.7235 27.6378 17.6788 27.0062 17.2617 26.6442L15.9508 28.1546ZM17.2617 2.15464C17.6788 1.79264 17.7235 1.16105 17.3615 0.743954C16.9995 0.326851 16.3679 0.282185 15.9508 0.644186L17.2617 2.15464ZM0.972084 15.1546L15.9508 28.1546L17.2617 26.6442L2.283 13.6442L0.972084 15.1546ZM2.283 15.1546L17.2617 2.15464L15.9508 0.644186L0.972084 13.6442L2.283 15.1546ZM74.7734 13.3994L38.2005 13.3994V15.3994L74.7734 15.3994V13.3994ZM38.2005 13.3994L1.62754 13.3994V15.3994L38.2005 15.3994V13.3994Z" fill="#151515"/>
</svg>
